# AST/ASF file generated using VICON BodyLanguage
# -----------------------------------------------
:version 1.10
:name VICON
:units
  mass 1.0
  length 0.45
  angle deg
:documentation
   .ast/.asf automatically generated from VICON data using
   VICON BodyBuilder and BodyLanguage model FoxedUp or BRILLIANT.MOD
:root
   order TX TY TZ RX RY RZ
   axis XYZ
   position 0 0 0  
   orientation 0 0 0 
:bonedata
  begin
     id 1 
     name lhipjoint
     direction 0.577973 -0.728611 0.367523 
     length 2.48544 
     axis 0 0 0  XYZ
  end
  begin
     id 2 
     name lfemur
     direction 0.34202 -0.939693 0  
     length 7.1921  
     axis 0 0 20  XYZ
    dof rx ry rz
    limits (-160.0 20.0)
           (-70.0 70.0)
           (-60.0 70.0)
  end
  begin
     id 3 
     name ltibia
     direction 0.34202 -0.939693 0   
     length 7.71059   
     axis 0 0 20   XYZ
    dof rx
    limits (-10.0 170.0)
  end
  begin
     id 4 
     name lfoot
     direction 0.089538 -0.246004 0.965124   
     length 2.19909   
     axis -90 7.62852e-016 20   XYZ
    dof rx rz
    limits (-45.0 90.0)
           (-70.0 20.0)
  end
  begin
     id 5 
     name ltoes
     direction 1.53544e-011 -4.21829e-011 1   
     length 1.10116   
     axis -90 7.62852e-016 20   XYZ
    dof rx
    limits (-90.0 20.0)
  end
  begin
     id 6 
     name rhipjoint
     direction -0.554414 -0.743062 0.374812   
     length 2.4371  
     axis 0 0 0  XYZ 
  end
  begin
     id 7 
     name rfemur
     direction -0.34202 -0.939693 0   
     length 7.47254   
     axis 0 0 -20   XYZ
    dof rx ry rz
    limits (-160.0 20.0)
           (-70.0 70.0)
           (-70.0 60.0)
  end
  begin
     id 8 
     name rtibia
     direction -0.34202 -0.939693 0   
     length 7.65855   
     axis 0 0 -20   XYZ
    dof rx
    limits (-10.0 170.0)
 end
 begin
     id 9 
     name rfoot
     direction -0.133779 -0.367555 0.92033   
     length 2.43006  
     axis -90 -7.62852e-016 -20   XYZ
    dof rx rz
    limits (-45.0 90.0)
           (-20.0 70.0)
  end
  begin
     id 10 
     name rtoes
     direction -1.53563e-011 -4.21889e-011 1   
     length 1.19625   
     axis -90 -7.62852e-016 -20   XYZ
    dof rx
    limits (-90.0 20.0)
  end
  begin
     id 11 
     name lowerback
     direction 0.0249066 0.998043 -0.0573585   
     length 2.08485   
     axis 0 0 0   XYZ
    dof rx ry rz
    limits (-20.0 45.0)
           (-30.0 30.0)
           (-30.0 30.0)
  end
  begin
     id 12 
     name upperback
     direction 0.0237884 0.999673 0.00943178   
     length 2.08515   
     axis 0 0 0   XYZ
    dof rx ry rz
    limits (-20.0 45.0)
           (-30.0 30.0)
           (-30.0 30.0)
  end
  begin
     id 13 
     name thorax
     direction 0.0106671 0.999301 0.0358174   
     length 2.09037   
     axis 0 0 0   XYZ
    dof rx ry rz
    limits (-20.0 45.0)
           (-30.0 30.0)
           (-30.0 30.0)
  end
  begin
     id 14 
     name lowerneck
     direction -0.0580016 0.987052 0.149546   
     length 1.84454   
     axis 0 0 0   XYZ
    dof rx ry rz
    limits (-20.0 45.0)
           (-30.0 30.0)
           (-30.0 30.0)
  end
  begin
     id 15 
     name upperneck
     direction 0.079456 0.981963 -0.171567   
     length 1.88141   
     axis 0 0 0   XYZ
    dof rx ry rz
    limits (-20.0 45.0)
           (-30.0 30.0)
           (-30.0 30.0)
  end
  begin
     id 16
     name head
     direction 0.0262167 0.9967 -0.0768276  
     length 1.89541  
     axis 0 0 0   XYZ
    dof rx ry rz
    limits (-20.0 45.0)
           (-30.0 30.0)
           (-30.0 30.0)
  end
  begin
     id 17 
     name lclavicle
     direction 0.946135 0.322134 -0.0325326  
     length 3.949  
     axis 0 0 0   XYZ
    dof ry rz
    limits (-20.0 10.0)
           (0.0 20.0)
  end
  begin
     id 18 
     name lhumerus
     direction 1 -4.48964e-011 1.94005e-028   
     length 5.10995   
     axis 180 -30 -90   XYZ
    dof rx ry rz
    limits (-60.0 90.0)
           (-90.0 90.0)
           (-90.0 90.0)
  end
  begin
     id 19
     name lradius
     direction 1 -4.48976e-011 2.87852e-027   
     length 3.21207   
     axis 180 -30 -90   XYZ
    dof rx
    limits (-10.0 170.0)
  end
  begin
     id 20
     name lwrist
     direction 1 -4.48963e-011 1.9975e-027   
     length 1.60604   
     axis 2.96054e-016 90 90   XYZ
    dof ry
    limits (-180.0 0.0)
 end
  begin
     id 21 
     name lhand
     direction 1 -4.48919e-011 4.00227e-027   
     length 0.63349   
     axis -2.5488e-015 90 90   XYZ
    dof rx rz
    limits (-90.0 90.0)
           (-45.0 45.0)
  end
  begin
     id 22 
     name lfingers
     direction 1 -4.49037e-011 7.9652e-027   
     length 0.510736   
     axis -5.0975e-015 90 90   XYZ
    dof rx
    limits (0.0 90.0)
  end
  begin
     id 23
     name lthumb
     direction 0.707107 -6.34922e-011 0.707107   
     length 0.733318   
     axis -90 45 -4.48553e-014   XYZ
    dof rx rz
    limits (-45.0 45.0)
           (-45.0 45.0)
  end
  begin
     id 24 
     name rclavicle
     direction -0.940085 0.328911 -0.0897654   
     length 3.93848  
     axis 0 0 0   XYZ 
    dof ry rz
    limits (-10.0 20.0)
           (-20.0 0.0)
  end
  begin
     id 25 
     name rhumerus
     direction -1 -4.48958e-011 3.02044e-027  
     length 5.25109   
     axis 180 30 90   XYZ
    dof rx ry rz
    limits (-90.0 60.0)
           (-90.0 90.0)
           (-90.0 90.0)
  end
  begin
     id 26 
     name rradius
     direction -1 -4.4897e-011 9.78352e-028   
     length 3.28364   
     axis 180 30 90   XYZ
    dof rx
    limits (-10.0 170.0)
  end
  begin
     id 27 
     name rwrist
     direction -1 -4.48943e-011 1.99918e-027   
     length 1.64182   
     axis 2.96054e-016 -90 -90   XYZ
    dof ry
    limits (-180.0 0.0)
  end
  begin
     id 28
     name rhand
     direction -1 -4.49024e-011 3.98478e-027   
     length 0.599745   
     axis -2.5488e-015 -90 -90   XYZ
    dof rx rz
    limits (-90.0 90.0)
           (-45.0 45.0)
  end
  begin
     id 29
     name rfingers
     direction -1 -4.48914e-011 8.00621e-027   
     length 0.48353   
     axis -5.0975e-015 -90 -90   XYZ
    dof rx
    limits (0.0 90.0)
  end
  begin
     id 30
     name rthumb
     direction -0.707107 -6.34992e-011 0.707107   
     length 0.694255   
     axis -90 -45 4.48553e-014   XYZ
    dof rx rz
    limits (-45.0 45.0)
           (-45.0 45.0)
  end
:hierarchy
  begin
    root lhipjoint rhipjoint lowerback
    lhipjoint lfemur
    lfemur ltibia
    ltibia lfoot
    lfoot ltoes
    rhipjoint rfemur
    rfemur rtibia
    rtibia rfoot
    rfoot rtoes
    lowerback upperback
    upperback thorax
    thorax lowerneck lclavicle rclavicle
    lowerneck upperneck
    upperneck head
    lclavicle lhumerus
    lhumerus lradius
    lradius lwrist
    lwrist lhand lthumb
    lhand lfingers
    rclavicle rhumerus
    rhumerus rradius
    rradius rwrist
    rwrist rhand rthumb
    rhand rfingers
  end

#!OML:ASF E:\CV Data\Top Level 1\Subject 1\Session 1\player.ASF
:FULLY-SPECIFIED
:DEGREES
446
root 10.903 16.786 2.86025 14.052 -3.25673 -12.6947
lowerback 7.00996 9.1885 0.707785
upperback -1.38696 12.3714 0.812792
thorax -5.34919 6.10301 -0.962419
lowerneck -5.80453 -13.8796 -16.2546
upperneck 0.373646 -19.6048 30.9264
head 6.25822 -9.13847 10.7121
rclavicle 5.34731e-014 -1.15295e-014
rhumerus 6.82863 9.65449 -78.9315
rradius 32.0892
rwrist -3.36017
rhand -24.1959 -0.242105
rfingers 7.12502
rthumb 2.28819 -30.2096
lclavicle 5.34731e-014 -1.15295e-014
lhumerus -25.1357 27.7522 36.6207
lradius 89.4967
lwrist 34.0596
lhand -34.222 27.3867
lfingers 7.12502
lthumb -7.3939 57.2375
rfemur 5.64809 -10.3816 30.2349
rtibia 30.14
rfoot 9.67111 -2.65053
rtoes -8.00725
lfemur -48.6945 -13.4576 3.23731
ltibia 30.5745
lfoot -10.4759 -28.779
ltoes -14.4243
447
root 10.9429 16.7941 2.82853 14.1336 -4.09569 -12.7749
lowerback 6.99742 9.13122 0.721346
upperback -1.37382 12.3006 0.895446
thorax -5.34455 6.06926 -0.875745
lowerneck -6.09397 -13.7765 -16.2871
upperneck 0.896341 -19.5199 30.6468
head 6.40572 -9.05109 10.6225
rclavicle -4.67144e-015 2.98177e-014
rhumerus 5.82498 5.98751 -77.9225
rradius 30.6691
rwrist -2.05634
rhand -24.5492 -0.520643
rfingers 7.12502
rthumb 1.94692 -30.4915
lclavicle -4.67144e-015 2.98177e-014
lhumerus -25.6444 28.4663 36.1252
lradius 88.7761
lwrist 33.2687
lhand -34.2476 27.4998
lfingers 7.12502
lthumb -7.41855 57.3497
rfemur 5.55064 -10.3279 29.874
rtibia 30.3534
rfoot 9.0245 -2.67444
rtoes -7.92594
lfemur -48.3995 -13.1567 3.26794
ltibia 30.3344
lfoot -10.9499 -28.2738
ltoes -15.0343
448
root 10.9829 16.802 2.79694 14.2195 -4.94265 -12.8457
lowerback 6.97897 9.0703 0.738865
upperback -1.3601 12.2252 0.978044
thorax -5.33501 6.03323 -0.789477
lowerneck -6.38827 -13.6663 -16.3276
upperneck 1.42949 -19.4226 30.3593
head 6.55495 -8.95822 10.5348
rclavicle -3.57812e-015 -3.65764e-014
rhumerus 4.8816 2.44843 -76.7466
rradius 29.4154
rwrist -1.09631
rhand -24.9347 -0.920521
rfingers 7.12502
rthumb 1.57465 -30.8945
lclavicle -3.57812e-015 -3.65764e-014
lhumerus -26.1646 29.2246 35.5942
lradius 87.9565
lwrist 32.4009
lhand -34.2682 27.6045
lfingers 7.12502
lthumb -7.43849 57.4538
rfemur 5.45426 -10.2843 29.5018
rtibia 30.5631
rfoot 8.32588 -2.75585
rtoes -7.99784
lfemur -48.1053 -12.8698 3.29971
ltibia 30.0913
lfoot -11.4343 -27.6852
ltoes -15.6712
449
root 11.0228 16.8095 2.76519 14.3111 -5.80628 -12.9099
lowerback 6.95231 9.00832 0.760149
upperback -1.34647 12.1484 1.05846
thorax -5.31953 5.99652 -0.705698
lowerneck -6.68252 -13.5498 -16.3672
upperneck 1.972 -19.3147 30.0642
head 6.7043 -8.86125 10.4475
rclavicle -4.88016e-014 -7.15625e-015
rhumerus 3.97674 -0.903912 -75.4206
rradius 28.3477
rwrist -0.552288
rhand -25.3402 -1.43182
rfingers 7.12502
rthumb 1.18297 -31.4083
lclavicle -4.88016e-014 -7.15625e-015
lhumerus -26.6969 30.0239 35.0206
lradius 87.0397
lwrist 31.4675
lhand -34.2558 27.69
lfingers 7.12502
lthumb -7.42647 57.5396
rfemur 5.35815 -10.2523 29.1194
rtibia 30.767
rfoot 7.55187 -2.92604
rtoes -8.35166
lfemur -47.8104 -12.5716 3.3234
ltibia 29.8496
lfoot -11.939 -27.0276
ltoes -16.3679
450
root 11.0627 16.8163 2.73353 14.3973 -6.68144 -12.9647
lowerback 6.93038 8.93817 0.788674
upperback -1.33334 12.0611 1.13552
thorax -5.30485 5.9543 -0.628617
lowerneck -6.98028 -13.4247 -16.4047
upperneck 2.53593 -19.1964 29.7675
head 6.859 -8.75922 10.3627
rclavicle -9.49197e-014 1.03368e-014
rhumerus 3.10253 -4.06562 -73.9832
rradius 27.4573
rwrist -0.387317
rhand -25.7607 -2.00208
rfingers 7.12502
rthumb 0.776843 -31.9804
lclavicle -9.49197e-014 1.03368e-014
lhumerus -27.266 30.86 34.374
lradius 86.0364
lwrist 30.5043
lhand -34.1875 27.7417
lfingers 7.12502
lthumb -7.36053 57.5937
rfemur 5.27247 -10.2511 28.7195
rtibia 30.9662
rfoot 6.72157 -3.17927
rtoes -8.89606
lfemur -47.5075 -12.2567 3.32395
ltibia 29.6116
lfoot -12.4399 -26.3353
ltoes -17.0718
451
root 11.1021 16.8227 2.70134 14.4744 -7.55171 -13.0085
lowerback 6.9206 8.85424 0.822438
upperback -1.31979 11.9557 1.21061
thorax -5.29488 5.90279 -0.556193
lowerneck -7.28965 -13.2941 -16.4425
upperneck 3.13145 -19.0744 29.476
head 7.02671 -8.65412 10.2818
rclavicle -7.03698e-014 -4.53229e-014
rhumerus 2.26017 -7.04878 -72.4585
rradius 26.7147
rwrist -0.47839
rhand -26.2216 -2.46601
rfingers 7.12502
rthumb 0.331733 -32.4455
lclavicle -7.03698e-014 -4.53229e-014
lhumerus -27.8737 31.7235 33.6562
lradius 84.9639
lwrist 29.5538
lhand -34.087 27.7641
lfingers 7.12502
lthumb -7.26357 57.6194
rfemur 5.19591 -10.3074 28.3053
rtibia 31.1612
rfoot 5.8459 -3.54997
rtoes -9.66985
lfemur -47.1978 -11.916 3.29264
ltibia 29.3747
lfoot -12.9239 -25.6455
ltoes -17.7815
452
root 11.141 16.8284 2.66839 14.5386 -8.42523 -13.0379
lowerback 6.92785 8.75628 0.858463
upperback -1.30722 11.8317 1.27896
thorax -5.2934 5.84154 -0.492492
lowerneck -7.59278 -13.1576 -16.4662
upperneck 3.75393 -18.9501 29.1876
head 7.20141 -8.5482 10.2024
rclavicle 3.63776e-014 9.14409e-015
rhumerus 1.45108 -9.89698 -70.8821
rradius 26.0942
rwrist -0.683115
rhand -26.6407 -2.80503
rfingers 7.12502
rthumb -0.0730459 -32.7848
lclavicle 3.63776e-014 9.14409e-015
lhumerus -28.5283 32.6026 32.854
lradius 83.837
lwrist 28.658
lhand -33.9648 27.7593
lfingers 7.12502
lthumb -7.14557 57.6187
rfemur 5.12879 -10.413 27.874
rtibia 31.3533
rfoot 4.94324 -4.0224
rtoes -10.5181
lfemur -46.8735 -11.5386 3.22043
ltibia 29.1363
lfoot -13.3632 -24.9794
ltoes -18.4521
453
root 11.1791 16.8337 2.63423 14.5902 -9.29761 -13.0526
lowerback 6.95467 8.63946 0.893236
upperback -1.29329 11.6823 1.34295
thorax -5.30057 5.76743 -0.432718
lowerneck -7.90846 -13.016 -16.4906
upperneck 4.4242 -18.8285 28.9159
head 7.39793 -8.44105 10.1308
rclavicle 3.40916e-014 -4.37326e-014
rhumerus 0.684691 -12.6348 -69.2748
rradius 25.5761
rwrist -0.870122
rhand -26.967 -3.0211
rfingers 7.12502
rthumb -0.38826 -33.0005
lclavicle 3.40916e-014 -4.37326e-014
lhumerus -29.2439 33.4996 31.9597
lradius 82.6686
lwrist 27.8406
lhand -33.8287 27.7225
lfingers 7.12502
lthumb -7.01419 57.5863
rfemur 5.06439 -10.5709 27.4284
rtibia 31.5444
rfoot 4.03542 -4.57143
rtoes -11.2344
lfemur -46.5386 -11.1404 3.11919
ltibia 28.8928
lfoot -13.7409 -24.3362
ltoes -19.0529
454
root 11.2164 16.8386 2.59871 14.6357 -10.1865 -13.0596
lowerback 6.99629 8.5115 0.930213
upperback -1.28197 11.5181 1.39959
thorax -5.31661 5.68555 -0.382278
lowerneck -8.27767 -12.8802 -16.4955
upperneck 5.1673 -18.7247 28.6351
head 7.6299 -8.33573 10.0494
rclavicle -1.44218e-013 -2.46493e-014
rhumerus -0.0496151 -15.2685 -67.6477
rradius 25.154
rwrist -0.956969
rhand -27.1898 -3.10205
rfingers 7.12502
rthumb -0.603426 -33.0809
lclavicle -1.44218e-013 -2.46493e-014
lhumerus -30.0212 34.3993 30.9745
lradius 81.468
lwrist 27.1098
lhand -33.6989 27.6631
lfingers 7.12502
lthumb -6.88887 57.531
rfemur 4.99117 -10.7563 26.974
rtibia 31.7373
rfoot 3.12478 -5.17696
rtoes -11.7692
lfemur -46.1918 -10.7187 3.00315
ltibia 28.6431
lfoot -14.0766 -23.7022
ltoes -19.6222
455
root 11.253 16.843 2.56163 14.6829 -11.1076 -13.0662
lowerback 7.04477 8.37817 0.971208
upperback -1.27409 11.3468 1.44721
thorax -5.33733 5.59976 -0.343326
lowerneck -8.69223 -12.753 -16.4788
upperneck 5.98405 -18.645 28.3478
head 7.89853 -8.2358 9.95881
rclavicle 1.86858e-014 -4.77083e-015
rhumerus -0.760532 -17.7582 -66.0055
rradius 24.8384
rwrist -0.965574
rhand -27.3108 -3.09983
rfingers 7.12502
rthumb -0.720251 -33.0784
lclavicle 1.86858e-014 -4.77083e-015
lhumerus -30.8544 35.3024 29.9052
lradius 80.2317
lwrist 26.4422
lhand -33.5684 27.5684
lfingers 7.12502
lthumb -6.76295 57.4404
rfemur 4.89988 -10.9481 26.517
rtibia 31.9334
rfoot 2.19476 -5.80388
rtoes -12.0958
lfemur -45.8353 -10.267 2.88464
ltibia 28.3863
lfoot -14.3639 -23.0762
ltoes -20.1326
456
root 11.2889 16.8467 2.52285 14.7384 -12.0608 -13.0775
lowerback 7.09391 8.24052 1.01768
upperback -1.27246 11.1703 1.489
thorax -5.36271 5.51099 -0.312882
lowerneck -9.16352 -12.6397 -16.4414
upperneck 6.88538 -18.5967 28.0454
head 8.21107 -8.14372 9.85471
rclavicle -2.32578e-014 4.37326e-015
rhumerus -1.45865 -20.0461 -64.3486
rradius 24.6325
rwrist -0.944308
rhand -27.3675 -3.0265
rfingers 7.12502
rthumb -0.775008 -33.0048
lclavicle -2.32578e-014 4.37326e-015
lhumerus -31.7512 36.1995 28.7573
lradius 78.961
lwrist 25.8197
lhand -33.4669 27.4633
lfingers 7.12502
lthumb -6.66492 57.3384
rfemur 4.78337 -11.1394 26.0646
rtibia 32.1332
rfoot 1.25068 -6.45174
rtoes -12.2441
lfemur -45.4776 -9.78514 2.77333
ltibia 28.1242
lfoot -14.6151 -22.4645
ltoes -20.5888
457
root 11.324 16.8496 2.48199 14.8158 -13.0496 -13.0964
lowerback 7.1321 8.10362 1.06706
upperback -1.28381 10.9949 1.52413
thorax -5.39373 5.42261 -0.290037
lowerneck -9.66513 -12.5412 -16.3879
upperneck 7.86388 -18.5834 27.7346
head 8.56383 -8.06367 9.74149
rclavicle -8.48811e-014 -1.98785e-014
rhumerus -2.15859 -22.0823 -62.6772
rradius 24.5426
rwrist -0.985847
rhand -27.3686 -2.93478
rfingers 7.12502
rthumb -0.776091 -32.9131
lclavicle -8.48811e-014 -1.98785e-014
lhumerus -32.7003 37.0804 27.5499
lradius 77.6481
lwrist 25.2133
lhand -33.4141 27.3527
lfingers 7.12502
lthumb -6.61399 57.2294
rfemur 4.63074 -11.3191 25.6246
rtibia 32.3349
rfoot 0.264632 -7.13749
rtoes -12.3447
lfemur -45.1317 -9.26776 2.67698
ltibia 27.8583
lfoot -14.8331 -21.8698
ltoes -20.9945
458
root 11.3584 16.8517 2.43924 14.9075 -14.0681 -13.1211
lowerback 7.16374 7.96729 1.1198
upperback -1.30488 10.8207 1.55504
thorax -5.42993 5.33457 -0.273011
lowerneck -10.1593 -12.4557 -16.3398
upperneck 8.90749 -18.6059 27.4386
head 8.95302 -7.99938 9.63379
rclavicle -3.11098e-014 -1.15295e-014
rhumerus -2.86472 -23.8299 -60.9973
rradius 24.5768
rwrist -1.18622
rhand -27.3488 -2.86988
rfingers 7.12502
rthumb -0.756945 -32.8483
lclavicle -3.11098e-014 -1.15295e-014
lhumerus -33.7004 37.9364 26.2923
lradius 76.2879
lwrist 24.5993
lhand -33.4273 27.2641
lfingers 7.12502
lthumb -6.62673 57.1404
rfemur 4.4545 -11.495 25.1965
rtibia 32.5342
rfoot -0.755292 -7.8317
rtoes -12.3262
lfemur -44.7924 -8.72758 2.59527
ltibia 27.591
lfoot -15.0385 -21.2839
ltoes -21.3839
459
root 11.3921 16.8528 2.39497 15.0061 -15.1084 -13.1479
lowerback 7.18856 7.8307 1.17359
upperback -1.33103 10.6463 1.58517
thorax -5.46743 5.2464 -0.256549
lowerneck -10.6143 -12.3817 -16.3052
upperneck 9.99067 -18.6594 27.1618
head 9.36578 -7.95239 9.53652
rclavicle -9.35282e-014 7.95139e-016
rhumerus -3.55567 -25.3256 -59.3276
rradius 24.7116
rwrist -1.57372
rhand -27.32 -2.79465
rfingers 7.12502
rthumb -0.729138 -32.7731
lclavicle -9.35282e-014 7.95139e-016
lhumerus -34.7472 38.766 25.0003
lradius 74.874
lwrist 23.9604
lhand -33.5246 27.1949
lfingers 7.12502
lthumb -6.72067 57.0682
rfemur 4.26632 -11.6794 24.7767
rtibia 32.7262
rfoot -1.7996 -8.55792
rtoes -12.2498
lfemur -44.4575 -8.18262 2.52939
ltibia 27.3258
lfoot -15.2133 -20.7086
ltoes -21.7146
